<?xml version="1.0" encoding="UTF-8"?>
<!DOCTYPE svg PUBLIC "-//W3C//DTD SVG 1.1//EN" "http://www.w3.org/Graphics/SVG/1.1/DTD/svg11.dtd">
<svg xmlns="http://www.w3.org/2000/svg" version="1.1" width="220px" height="229px" style="shape-rendering:geometricPrecision; text-rendering:geometricPrecision; image-rendering:optimizeQuality; fill-rule:evenodd; clip-rule:evenodd" xmlns:xlink="http://www.w3.org/1999/xlink">
<g><path style="opacity:1" fill="#fcfcfc" d="M -0.5,-0.5 C 72.8333,-0.5 146.167,-0.5 219.5,-0.5C 219.5,75.8333 219.5,152.167 219.5,228.5C 146.167,228.5 72.8333,228.5 -0.5,228.5C -0.5,152.167 -0.5,75.8333 -0.5,-0.5 Z"/></g>
<g><path style="opacity:1" fill="#0f0f09" d="M 196.5,115.5 C 195.504,115.414 194.671,115.748 194,116.5C 193.517,115.552 193.351,114.552 193.5,113.5C 195.268,100.577 195.934,87.5773 195.5,74.5C 195.5,69.8333 195.5,65.1667 195.5,60.5C 187.167,60.5 178.833,60.5 170.5,60.5C 120.834,60.1234 71.167,59.79 21.5,59.5C 21.3334,73.8372 21.5001,88.1705 22,102.5C 22.9003,106.171 23.7337,109.837 24.5,113.5C 24.7845,115.415 24.4511,117.081 23.5,118.5C 21.3318,114.159 19.8318,109.492 19,104.5C 18.3333,71.5 18.3333,38.5 19,5.5C 32.9207,11.951 47.5874,14.951 63,14.5C 78.4779,15.0537 93.4779,12.7204 108,7.5C 138.231,16.7906 168.398,16.7906 198.5,7.5C 198.667,40.835 198.5,74.1683 198,107.5C 197.433,110.168 196.933,112.834 196.5,115.5 Z"/></g>
<g><path style="opacity:1" fill="#f7f717" d="M 21.5,11.5 C 50.3162,20.8089 79.1495,20.8089 108,11.5C 136.47,20.3895 164.97,20.7228 193.5,12.5C 194.499,27.4852 194.833,42.4852 194.5,57.5C 137.172,56.6029 79.839,56.2696 22.5,56.5C 22.4652,41.4918 22.1319,26.4918 21.5,11.5 Z"/></g>
<g><path style="opacity:1" fill="#c2c237" d="M 116.5,29.5 C 116.5,27.8333 116.5,26.1667 116.5,24.5C 115.5,24.5 114.5,24.5 113.5,24.5C 113.595,26.7857 114.262,28.7857 115.5,30.5C 115.158,31.3382 114.492,31.6716 113.5,31.5C 111.901,29.691 109.901,28.3576 107.5,27.5C 108.995,27.5221 110.662,27.1887 112.5,26.5C 111.398,25.8243 110.398,25.1577 109.5,24.5C 112.127,23.9084 114.794,23.5751 117.5,23.5C 117.795,25.7354 117.461,27.7354 116.5,29.5 Z"/></g>
<g><path style="opacity:1" fill="#13120b" d="M 49.5,24.5 C 50.8333,24.5 52.1667,24.5 53.5,24.5C 53.5,27.1667 53.5,29.8333 53.5,32.5C 55.1667,32.5 56.8333,32.5 58.5,32.5C 58.5,33.5 58.5,34.5 58.5,35.5C 55.5,35.5 52.5,35.5 49.5,35.5C 49.5,31.8333 49.5,28.1667 49.5,24.5 Z"/></g>
<g><path style="opacity:1" fill="#53511f" d="M 144.5,25.5 C 141.833,25.5 139.167,25.5 136.5,25.5C 136.5,28.8333 136.5,32.1667 136.5,35.5C 135.518,32.0381 135.185,28.3714 135.5,24.5C 138.713,24.19 141.713,24.5233 144.5,25.5 Z"/></g>
<g><path style="opacity:1" fill="#0d0c08" d="M 144.5,25.5 C 145.968,27.6109 145.635,29.4443 143.5,31C 147.4,34.2257 147.067,35.7257 142.5,35.5C 140.479,30.6341 139.479,30.6341 139.5,35.5C 138.5,35.5 137.5,35.5 136.5,35.5C 136.5,32.1667 136.5,28.8333 136.5,25.5C 139.167,25.5 141.833,25.5 144.5,25.5 Z"/></g>
<g><path style="opacity:1" fill="#888827" d="M 174.5,25.5 C 173.5,25.5 172.5,25.5 171.5,25.5C 171.5,28.8333 171.5,32.1667 171.5,35.5C 170.518,32.0381 170.185,28.3714 170.5,24.5C 172.099,24.2322 173.432,24.5655 174.5,25.5 Z"/></g>
<g><path style="opacity:1" fill="#13130b" d="M 171.5,35.5 C 171.5,32.1667 171.5,28.8333 171.5,25.5C 172.5,25.5 173.5,25.5 174.5,25.5C 176.81,29.7858 177.81,29.4525 177.5,24.5C 178.833,24.5 180.167,24.5 181.5,24.5C 181.5,28.1667 181.5,31.8333 181.5,35.5C 178.192,36.0262 176.026,34.6928 175,31.5C 174.51,32.7932 174.343,34.1266 174.5,35.5C 173.5,35.5 172.5,35.5 171.5,35.5 Z"/></g>
<g><path style="opacity:1" fill="#1d1c10" d="M 116.5,29.5 C 116.5,30.1667 116.167,30.5 115.5,30.5C 114.262,28.7857 113.595,26.7857 113.5,24.5C 114.5,24.5 115.5,24.5 116.5,24.5C 116.5,26.1667 116.5,27.8333 116.5,29.5 Z"/></g>
<g><path style="opacity:1" fill="#14140f" d="M 125.5,24.5 C 133.371,24.2758 135.704,27.6092 132.5,34.5C 122.734,36.2963 120.401,32.9629 125.5,24.5 Z"/></g>
<g><path style="opacity:1" fill="#c3c42d" d="M 142.5,35.5 C 147.067,35.7257 147.4,34.2257 143.5,31C 145.635,29.4443 145.968,27.6109 144.5,25.5C 146.764,24.7814 149.097,24.448 151.5,24.5C 151.5,28.5 151.5,32.5 151.5,36.5C 148.287,36.81 145.287,36.4767 142.5,35.5 Z"/></g>
<g><path style="opacity:1" fill="#000003" d="M 147.5,25.5 C 148.5,25.5 149.5,25.5 150.5,25.5C 150.5,28.8333 150.5,32.1667 150.5,35.5C 149.5,35.5 148.5,35.5 147.5,35.5C 147.5,32.1667 147.5,28.8333 147.5,25.5 Z"/></g>
<g><path style="opacity:1" fill="#acae31" d="M 139.5,27.5 C 141.337,27.6395 141.67,28.3061 140.5,29.5C 139.702,29.0431 139.369,28.3764 139.5,27.5 Z"/></g>
<g><path style="opacity:1" fill="#b8b832" d="M 168.5,35.5 C 168.5,32.1667 168.5,28.8333 168.5,25.5C 167.5,25.5 166.5,25.5 165.5,25.5C 165.5,28.8333 165.5,32.1667 165.5,35.5C 164.833,35.1667 164.167,34.8333 163.5,34.5C 163.5,32.8333 163.5,31.1667 163.5,29.5C 161.712,29.2148 160.045,29.5481 158.5,30.5C 161.167,31.5 161.167,32.5 158.5,33.5C 156.717,31.9775 156.051,29.9775 156.5,27.5C 157.822,27.33 158.989,27.6634 160,28.5C 160.995,27.9341 161.828,27.2674 162.5,26.5C 163.222,26.9175 163.722,27.5842 164,28.5C 164.49,27.2068 164.657,25.8734 164.5,24.5C 166.167,24.5 167.833,24.5 169.5,24.5C 169.815,28.3714 169.482,32.0381 168.5,35.5 Z"/></g>
<g><path style="opacity:1" fill="#000102" d="M 168.5,35.5 C 167.5,35.5 166.5,35.5 165.5,35.5C 165.5,32.1667 165.5,28.8333 165.5,25.5C 166.5,25.5 167.5,25.5 168.5,25.5C 168.5,28.8333 168.5,32.1667 168.5,35.5 Z"/></g>
<g><path style="opacity:1" fill="#0e0d0a" d="M 109.5,24.5 C 110.398,25.1577 111.398,25.8243 112.5,26.5C 110.662,27.1887 108.995,27.5221 107.5,27.5C 109.901,28.3576 111.901,29.691 113.5,31.5C 111.766,35.3315 108.766,36.4982 104.5,35C 103.663,33.9887 103.33,32.8221 103.5,31.5C 104.5,31.5 105.5,31.5 106.5,31.5C 103.687,30.257 103.021,28.257 104.5,25.5C 106.071,24.6906 107.738,24.3573 109.5,24.5 Z"/></g>
<g><path style="opacity:1" fill="#0f0e09" d="M 90.5,30.5 C 88.5,30.5 86.5,30.5 84.5,30.5C 84.5,31.5 84.5,32.5 84.5,33.5C 86.5,33.5 88.5,33.5 90.5,33.5C 88.0122,35.3878 85.0122,36.0545 81.5,35.5C 81.5,31.8333 81.5,28.1667 81.5,24.5C 84.5719,24.1826 87.5719,24.5159 90.5,25.5C 88.8333,26.1667 87.1667,26.8333 85.5,27.5C 87.6551,28.0014 89.3218,29.0014 90.5,30.5 Z"/></g>
<g><path style="opacity:1" fill="#0f0e0c" d="M 92.5,24.5 C 95.1873,24.3359 97.854,24.5026 100.5,25C 101.167,26 101.833,27 102.5,28C 99.9199,30.1203 99.9199,32.287 102.5,34.5C 101.833,34.8333 101.167,35.1667 100.5,35.5C 98.7284,34.6401 97.3951,33.3068 96.5,31.5C 95.5713,32.6888 95.238,34.0222 95.5,35.5C 94.5,35.5 93.5,35.5 92.5,35.5C 92.5,31.8333 92.5,28.1667 92.5,24.5 Z"/></g>
<g><path style="opacity:1" fill="#acac35" d="M 95.5,26.5 C 98.9571,26.6672 99.2904,27.6672 96.5,29.5C 95.6143,28.675 95.281,27.675 95.5,26.5 Z"/></g>
<g><path style="opacity:1" fill="#e6e739" d="M 127.5,27.5 C 129.484,27.484 130.484,28.484 130.5,30.5C 129.167,34.5 127.833,34.5 126.5,30.5C 126.685,29.4163 127.018,28.4163 127.5,27.5 Z"/></g>
<g><path style="opacity:1" fill="#191810" d="M 59.5,24.5 C 63.8461,24.3343 68.1794,24.501 72.5,25C 73.3295,26.8161 74.1628,28.6494 75,30.5C 75.8624,28.913 76.5291,27.2464 77,25.5C 78.0113,24.6634 79.1779,24.33 80.5,24.5C 79.5155,27.8119 78.5155,31.1452 77.5,34.5C 75.9547,35.4519 74.288,35.7852 72.5,35.5C 72.2163,32.1476 71.0496,29.1476 69,26.5C 67.2663,27.2489 65.433,27.7489 63.5,28C 68.797,29.1342 68.797,29.9675 63.5,30.5C 63.5,31.5 63.5,32.5 63.5,33.5C 65.288,33.2148 66.9547,33.5481 68.5,34.5C 65.5719,35.4841 62.5719,35.8174 59.5,35.5C 59.5,31.8333 59.5,28.1667 59.5,24.5 Z"/></g>
<g><path style="opacity:1" fill="#84872b" d="M 90.5,30.5 C 89.0484,31.3019 87.3817,31.8019 85.5,32C 87.3817,32.1981 89.0484,32.6981 90.5,33.5C 88.5,33.5 86.5,33.5 84.5,33.5C 84.5,32.5 84.5,31.5 84.5,30.5C 86.5,30.5 88.5,30.5 90.5,30.5 Z"/></g>
<g><path style="opacity:1" fill="#939531" d="M 106.5,31.5 C 107.675,31.281 108.675,31.6143 109.5,32.5C 108.14,33.6653 107.14,33.332 106.5,31.5 Z"/></g>
<g><path style="opacity:1" fill="#100f0c" d="M 40.5,24.5 C 42.5273,24.3379 44.5273,24.5045 46.5,25C 47.3366,26.0113 47.67,27.1779 47.5,28.5C 46.0695,28.5792 44.7362,28.2458 43.5,27.5C 40.8333,29.5 40.8333,31.5 43.5,33.5C 44.8544,31.8164 46.5211,31.3164 48.5,32C 46.4062,35.5822 43.4062,36.4155 39.5,34.5C 36.8121,30.8862 37.1455,27.5529 40.5,24.5 Z"/></g>
<g><path style="opacity:1" fill="#100f0d" d="M 162.5,26.5 C 161.828,27.2674 160.995,27.9341 160,28.5C 158.989,27.6634 157.822,27.33 156.5,27.5C 156.051,29.9775 156.717,31.9775 158.5,33.5C 161.167,32.5 161.167,31.5 158.5,30.5C 160.045,29.5481 161.712,29.2148 163.5,29.5C 163.5,31.1667 163.5,32.8333 163.5,34.5C 155.162,37.8911 151.662,35.2244 153,26.5C 156.28,23.8599 159.447,23.8599 162.5,26.5 Z"/></g>
<g><path style="opacity:1" fill="#cdcd33" d="M 70.5,49.5 C 69.5318,47.3926 69.1984,45.0593 69.5,42.5C 68.5,42.5 67.5,42.5 66.5,42.5C 66.5,45.1667 66.5,47.8333 66.5,50.5C 65.8333,50.5 65.1667,50.5 64.5,50.5C 64.5,47.8333 64.5,45.1667 64.5,42.5C 63.5,42.5 62.5,42.5 61.5,42.5C 61.8016,45.0593 61.4682,47.3926 60.5,49.5C 60.5,46.8333 60.5,44.1667 60.5,41.5C 63.8333,41.5 67.1667,41.5 70.5,41.5C 70.5,44.1667 70.5,46.8333 70.5,49.5 Z"/></g>
<g><path style="opacity:1" fill="#000000" d="M 91.5,42.5 C 92.5,42.5 93.5,42.5 94.5,42.5C 94.5,45.8333 94.5,49.1667 94.5,52.5C 93.5,52.5 92.5,52.5 91.5,52.5C 91.5,49.1667 91.5,45.8333 91.5,42.5 Z"/></g>
<g><path style="opacity:1" fill="#13120e" d="M 126.5,42.5 C 129.119,42.2317 131.619,42.565 134,43.5C 134.221,46.2935 134.054,49.1268 133.5,52C 130.032,53.0813 127.032,52.4146 124.5,50C 126.856,49.8446 129.189,49.8446 131.5,50C 130,48.8855 128.333,48.0521 126.5,47.5C 125.334,45.8327 125.334,44.166 126.5,42.5 Z"/></g>
<g><path style="opacity:1" fill="#0c0c0d" d="M 98.5,42.5 C 106.993,41.4707 109.327,44.6373 105.5,52C 96.7514,53.4259 94.418,50.2592 98.5,42.5 Z"/></g>
<g><path style="opacity:1" fill="#13130e" d="M 78.5,42.5 C 81.8078,41.9738 83.9745,43.3072 85,46.5C 85.49,45.2068 85.6567,43.8734 85.5,42.5C 86.5,42.5 87.5,42.5 88.5,42.5C 88.5,45.8333 88.5,49.1667 88.5,52.5C 86.0968,52.607 84.2635,51.607 83,49.5C 82.5172,50.448 82.3505,51.448 82.5,52.5C 81.1667,52.5 79.8333,52.5 78.5,52.5C 78.5,49.1667 78.5,45.8333 78.5,42.5 Z"/></g>
<g><path style="opacity:1" fill="#d4d533" d="M 100.5,44.5 C 101.496,44.4142 102.329,44.7476 103,45.5C 103.494,47.1341 103.66,48.8008 103.5,50.5C 99.4889,50.1649 98.4889,48.1649 100.5,44.5 Z"/></g>
<g><path style="opacity:1" fill="#939233" d="M 157.5,42.5 C 158.482,45.9619 158.815,49.6286 158.5,53.5C 156.901,53.7678 155.568,53.4345 154.5,52.5C 155.5,52.5 156.5,52.5 157.5,52.5C 157.5,49.1667 157.5,45.8333 157.5,42.5 Z"/></g>
<g><path style="opacity:1" fill="#050509" d="M 109.5,42.5 C 112.448,42.2229 115.281,42.5562 118,43.5C 118.651,45.235 118.485,46.9017 117.5,48.5C 120.798,52.0023 120.131,53.169 115.5,52C 113.819,48.5335 112.819,48.7002 112.5,52.5C 111.5,52.5 110.5,52.5 109.5,52.5C 109.5,49.1667 109.5,45.8333 109.5,42.5 Z"/></g>
<g><path style="opacity:1" fill="#9fa13c" d="M 112.5,44.5 C 113.675,44.281 114.675,44.6143 115.5,45.5C 113.948,46.7979 112.948,46.4646 112.5,44.5 Z"/></g>
<g><path style="opacity:1" fill="#13120e" d="M 137.5,42.5 C 140.119,42.2317 142.619,42.565 145,43.5C 145.167,43.8333 145.333,44.1667 145.5,44.5C 143.604,45.4656 141.604,45.7989 139.5,45.5C 139.5,47.1667 139.5,48.8333 139.5,50.5C 141.5,49.8333 143.5,49.1667 145.5,48.5C 145.67,49.8221 145.337,50.9887 144.5,52C 135.751,53.4259 133.418,50.2592 137.5,42.5 Z"/></g>
<g><path style="opacity:1" fill="#0c0b0a" d="M 157.5,42.5 C 157.5,45.8333 157.5,49.1667 157.5,52.5C 156.5,52.5 155.5,52.5 154.5,52.5C 154.5,51.1667 154.5,49.8333 154.5,48.5C 153.167,48.5 151.833,48.5 150.5,48.5C 150.5,49.8333 150.5,51.1667 150.5,52.5C 149.5,52.5 148.5,52.5 147.5,52.5C 147.5,49.1667 147.5,45.8333 147.5,42.5C 148.5,42.5 149.5,42.5 150.5,42.5C 150.5,43.5 150.5,44.5 150.5,45.5C 151.833,45.5 153.167,45.5 154.5,45.5C 154.5,44.5 154.5,43.5 154.5,42.5C 155.5,42.5 156.5,42.5 157.5,42.5 Z"/></g>
<g><path style="opacity:1" fill="#030307" d="M 70.5,49.5 C 71.1894,50.7736 72.0228,50.7736 73,49.5C 73.4966,47.1902 73.6633,44.8568 73.5,42.5C 74.5,42.5 75.5,42.5 76.5,42.5C 78.5919,52.4238 75.2586,55.0904 66.5,50.5C 66.5,47.8333 66.5,45.1667 66.5,42.5C 67.5,42.5 68.5,42.5 69.5,42.5C 69.1984,45.0593 69.5318,47.3926 70.5,49.5 Z"/></g>
<g><path style="opacity:1" fill="#989628" d="M 91.5,42.5 C 91.5,45.8333 91.5,49.1667 91.5,52.5C 92.5,52.5 93.5,52.5 94.5,52.5C 93.4324,53.4345 92.099,53.7678 90.5,53.5C 90.185,49.6286 90.5184,45.9619 91.5,42.5 Z"/></g>
<g><path style="opacity:1" fill="#080706" d="M 64.5,50.5 C 63.5081,52.0265 62.0081,52.6932 60,52.5C 58.0448,52.3594 56.5448,51.526 55.5,50C 57.2773,47.848 58.7773,48.0147 60,50.5C 60.3988,50.2716 60.5654,49.9382 60.5,49.5C 61.4682,47.3926 61.8016,45.0593 61.5,42.5C 62.5,42.5 63.5,42.5 64.5,42.5C 64.5,45.1667 64.5,47.8333 64.5,50.5 Z"/></g>
<g><path style="opacity:1" fill="#17160b" d="M 159.5,49.5 C 160.833,49.5 162.167,49.5 163.5,49.5C 163.5,50.5 163.5,51.5 163.5,52.5C 162.167,52.5 160.833,52.5 159.5,52.5C 159.5,51.5 159.5,50.5 159.5,49.5 Z"/></g>
<g><path style="opacity:1" fill="#fafafa" d="M 170.5,60.5 C 178.316,61.4924 186.316,61.8257 194.5,61.5C 194.182,66.0323 194.515,70.3656 195.5,74.5C 195.934,87.5773 195.268,100.577 193.5,113.5C 184.791,141.062 167.458,161.562 141.5,175C 130.649,180.615 119.482,185.448 108,189.5C 75.6391,180.507 50.6391,161.84 33,133.5C 29.8393,126.86 27.0059,120.193 24.5,113.5C 23.7337,109.837 22.9003,106.171 22,102.5C 21.5001,88.1705 21.3334,73.8372 21.5,59.5C 71.167,59.79 120.834,60.1234 170.5,60.5 Z"/></g>
<g><path style="opacity:1" fill="#888888" d="M 170.5,60.5 C 178.833,60.5 187.167,60.5 195.5,60.5C 195.5,65.1667 195.5,69.8333 195.5,74.5C 194.515,70.3656 194.182,66.0323 194.5,61.5C 186.316,61.8257 178.316,61.4924 170.5,60.5 Z"/></g>
<g><path style="opacity:1" fill="#181818" d="M 108.5,66.5 C 110.449,70.4794 111.449,74.8128 111.5,79.5C 110.022,79.762 108.689,79.4287 107.5,78.5C 108.433,74.5705 108.766,70.5705 108.5,66.5 Z"/></g>
<g><path style="opacity:1" fill="#0c0c0c" d="M 83.5,73.5 C 83.5,73.8333 83.5,74.1667 83.5,74.5C 81.1667,74.5 78.8333,74.5 76.5,74.5C 76.5,76.1667 76.5,77.8333 76.5,79.5C 76.5,80.1667 76.5,80.8333 76.5,81.5C 76.5,83.5 76.5,85.5 76.5,87.5C 76.5,87.8333 76.5,88.1667 76.5,88.5C 74.0175,90.9569 71.6842,90.9569 69.5,88.5C 70.1667,88.5 70.5,88.1667 70.5,87.5C 71.1667,87.1667 71.8333,86.8333 72.5,86.5C 73.5,86.5 74.5,86.5 75.5,86.5C 75.5,84.1667 75.5,81.8333 75.5,79.5C 75.5,77.8333 75.5,76.1667 75.5,74.5C 71.6625,74.0216 68.3291,75.0216 65.5,77.5C 64.8333,76.5 64.1667,75.5 63.5,74.5C 56.8333,74.5 50.1667,74.5 43.5,74.5C 43.1667,74.5 42.8333,74.5 42.5,74.5C 40.549,74.2267 39.049,74.8934 38,76.5C 36.2458,74.75 34.0792,74.0833 31.5,74.5C 31.3343,78.8461 31.501,83.1794 32,87.5C 34.6961,83.6393 37.8627,80.306 41.5,77.5C 42.6857,78.7054 42.6857,80.0387 41.5,81.5C 40.7659,82.7079 40.4326,84.0413 40.5,85.5C 42.5138,85.3915 44.1805,86.0582 45.5,87.5C 45.1984,90.0593 45.5318,92.3926 46.5,94.5C 52.5769,95.1977 58.2435,94.1977 63.5,91.5C 64.1667,92.5 64.8333,93.5 65.5,94.5C 71.5,94.5 77.5,94.5 83.5,94.5C 83.5,94.8333 83.5,95.1667 83.5,95.5C 76.825,95.3337 70.1583,95.5004 63.5,96C 62.3914,96.6377 61.2247,97.1377 60,97.5C 54.6058,95.2285 49.1058,94.8952 43.5,96.5C 42.7659,97.7079 42.4326,99.0413 42.5,100.5C 56.1667,100.5 69.8333,100.5 83.5,100.5C 83.5,100.833 83.5,101.167 83.5,101.5C 69.8293,101.333 56.1626,101.5 42.5,102C 41.541,103.464 40.2077,104.297 38.5,104.5C 36.2082,102.551 33.5415,101.551 30.5,101.5C 30.5,92.1667 30.5,82.8333 30.5,73.5C 33.1667,73.5 35.8333,73.5 38.5,73.5C 38.1667,70.5 39.5,69.1667 42.5,69.5C 42.5,70.5 42.5,71.5 42.5,72.5C 48.7885,73.6488 57.1219,73.8155 67.5,73C 70.0048,71.2467 72.6714,69.7467 75.5,68.5C 76.4519,70.0453 76.7852,71.712 76.5,73.5C 78.8333,73.5 81.1667,73.5 83.5,73.5 Z"/></g>
<g><path style="opacity:1" fill="#f4f4f4" d="M 75.5,79.5 C 71.6707,80.069 68.3373,79.4023 65.5,77.5C 68.3291,75.0216 71.6625,74.0216 75.5,74.5C 75.5,76.1667 75.5,77.8333 75.5,79.5 Z"/></g>
<g><path style="opacity:1" fill="#fafafa" d="M 83.5,74.5 C 83.5,76.1667 83.5,77.8333 83.5,79.5C 81.1667,79.5 78.8333,79.5 76.5,79.5C 76.5,77.8333 76.5,76.1667 76.5,74.5C 78.8333,74.5 81.1667,74.5 83.5,74.5 Z"/></g>
<g><path style="opacity:1" fill="#d5d5d5" d="M 42.5,74.5 C 41.8902,75.391 41.5569,76.391 41.5,77.5C 37.8627,80.306 34.6961,83.6393 32,87.5C 31.501,83.1794 31.3343,78.8461 31.5,74.5C 34.0792,74.0833 36.2458,74.75 38,76.5C 39.049,74.8934 40.549,74.2267 42.5,74.5 Z"/></g>
<g><path style="opacity:1" fill="#1e1e1e" d="M 94.5,77.5 C 94.7352,76.9033 95.2352,76.5699 96,76.5C 98.6213,78.2267 101.455,79.56 104.5,80.5C 105.745,81.9554 105.578,83.2887 104,84.5C 100.937,81.9245 97.7705,79.5912 94.5,77.5 Z"/></g>
<g><path style="opacity:1" fill="#1c1c1c" d="M 121.5,77.5 C 122.239,77.369 122.906,77.5357 123.5,78C 121.017,80.4062 118.35,82.5729 115.5,84.5C 114.713,83.7579 114.047,82.9246 113.5,82C 116.391,80.7258 119.058,79.2258 121.5,77.5 Z"/></g>
<g><path style="opacity:1" fill="#161616" d="M 173.5,108.5 C 173.877,106.742 174.544,105.075 175.5,103.5C 174.998,102.479 174.332,102.312 173.5,103C 172.915,104.302 172.249,105.469 171.5,106.5C 171.95,99.7272 169.283,98.0605 163.5,101.5C 162.013,103.859 161.68,106.193 162.5,108.5C 159.495,106.701 156.162,106.034 152.5,106.5C 152.397,102.521 150.731,99.5207 147.5,97.5C 148.93,97.4208 150.264,97.7542 151.5,98.5C 153.5,97.1667 155.5,95.8333 157.5,94.5C 160.094,95.5922 162.261,97.2589 164,99.5C 168.919,98.68 171.086,95.68 170.5,90.5C 168.606,89.9524 166.94,88.9524 165.5,87.5C 162.236,89.7629 158.903,89.9295 155.5,88C 153.913,87.1376 152.246,86.4709 150.5,86C 151.731,84.8173 151.731,83.6507 150.5,82.5C 148.466,83.5588 146.466,84.5588 144.5,85.5C 152.072,78.6376 160.405,77.8043 169.5,83C 176.092,89.1058 178.258,96.6058 176,105.5C 175.623,106.942 174.79,107.942 173.5,108.5 Z"/></g>
<g><path style="opacity:1" fill="#fafafa" d="M 41.5,81.5 C 48.8333,81.5 56.1667,81.5 63.5,81.5C 63.5,83.5 63.5,85.5 63.5,87.5C 57.5,87.5 51.5,87.5 45.5,87.5C 44.1805,86.0582 42.5138,85.3915 40.5,85.5C 40.4326,84.0413 40.7659,82.7079 41.5,81.5 Z"/></g>
<g><path style="opacity:1" fill="#6f6f6f" d="M 42.5,74.5 C 42.8333,74.5 43.1667,74.5 43.5,74.5C 43.5,76.5 43.5,78.5 43.5,80.5C 50.1667,80.5 56.8333,80.5 63.5,80.5C 63.5,78.5 63.5,76.5 63.5,74.5C 64.1667,75.5 64.8333,76.5 65.5,77.5C 68.3373,79.4023 71.6707,80.069 75.5,79.5C 75.5,81.8333 75.5,84.1667 75.5,86.5C 74.5,86.5 73.5,86.5 72.5,86.5C 73.968,85.2209 74.6347,83.5542 74.5,81.5C 71.5,81.5 68.5,81.5 65.5,81.5C 65.5,83.5 65.5,85.5 65.5,87.5C 67.1667,87.5 68.8333,87.5 70.5,87.5C 70.5,88.1667 70.1667,88.5 69.5,88.5C 68.1667,88.5 66.8333,88.5 65.5,88.5C 65.5,90.5 65.5,92.5 65.5,94.5C 64.8333,93.5 64.1667,92.5 63.5,91.5C 63.5,90.5 63.5,89.5 63.5,88.5C 57.8333,88.5 52.1667,88.5 46.5,88.5C 46.5,90.5 46.5,92.5 46.5,94.5C 45.5318,92.3926 45.1984,90.0593 45.5,87.5C 51.5,87.5 57.5,87.5 63.5,87.5C 63.5,85.5 63.5,83.5 63.5,81.5C 56.1667,81.5 48.8333,81.5 41.5,81.5C 42.6857,80.0387 42.6857,78.7054 41.5,77.5C 41.5569,76.391 41.8902,75.391 42.5,74.5 Z"/></g>
<g><path style="opacity:1" fill="#f5f5f5" d="M 43.5,74.5 C 50.1667,74.5 56.8333,74.5 63.5,74.5C 63.5,76.5 63.5,78.5 63.5,80.5C 56.8333,80.5 50.1667,80.5 43.5,80.5C 43.5,78.5 43.5,76.5 43.5,74.5 Z"/></g>
<g><path style="opacity:1" fill="#fbfbfb" d="M 72.5,86.5 C 71.8333,86.8333 71.1667,87.1667 70.5,87.5C 68.8333,87.5 67.1667,87.5 65.5,87.5C 65.5,85.5 65.5,83.5 65.5,81.5C 68.5,81.5 71.5,81.5 74.5,81.5C 74.6347,83.5542 73.968,85.2209 72.5,86.5 Z"/></g>
<g><path style="opacity:1" fill="#f9f9f9" d="M 76.5,81.5 C 78.8333,81.5 81.1667,81.5 83.5,81.5C 83.5,83.5 83.5,85.5 83.5,87.5C 81.1667,87.5 78.8333,87.5 76.5,87.5C 76.5,85.5 76.5,83.5 76.5,81.5 Z"/></g>
<g><path style="opacity:1" fill="#f8f8f8" d="M 170.5,90.5 C 169.542,89.0384 168.376,87.7051 167,86.5C 166.251,85.365 166.417,84.365 167.5,83.5C 169.833,85.1667 171.833,87.1667 173.5,89.5C 172.675,90.3857 171.675,90.719 170.5,90.5 Z"/></g>
<g><path style="opacity:1" fill="#232323" d="M 89.5,85.5 C 89.9169,84.8761 90.5836,84.5427 91.5,84.5C 95.131,85.4911 98.7977,86.3244 102.5,87C 101.953,87.9246 101.287,88.7579 100.5,89.5C 96.9205,87.8746 93.2538,86.5413 89.5,85.5 Z"/></g>
<g><path style="opacity:1" fill="#1d1d1d" d="M 123.5,85.5 C 125.857,85.3367 128.19,85.5034 130.5,86C 126.553,87.4838 122.553,88.6505 118.5,89.5C 118.5,88.5 118.5,87.5 118.5,86.5C 120.415,86.7845 122.081,86.4511 123.5,85.5 Z"/></g>
<g><path style="opacity:1" fill="#eaeaea" d="M 170.5,90.5 C 171.086,95.68 168.919,98.68 164,99.5C 162.261,97.2589 160.094,95.5922 157.5,94.5C 155.5,95.8333 153.5,97.1667 151.5,98.5C 150.264,97.7542 148.93,97.4208 147.5,97.5C 146.218,94.3209 144.885,91.1543 143.5,88C 144.252,87.3292 144.586,86.4959 144.5,85.5C 146.466,84.5588 148.466,83.5588 150.5,82.5C 151.731,83.6507 151.731,84.8173 150.5,86C 152.246,86.4709 153.913,87.1376 155.5,88C 158.903,89.9295 162.236,89.7629 165.5,87.5C 166.94,88.9524 168.606,89.9524 170.5,90.5 Z"/></g>
<g><path style="opacity:1" fill="#6e6e6e" d="M 42.5,88.5 C 40.1667,88.5 37.8333,88.5 35.5,88.5C 35.7118,86.6159 36.7118,85.2826 38.5,84.5C 40.2004,85.6099 41.5337,86.9432 42.5,88.5 Z"/></g>
<g><path style="opacity:1" fill="#5c5c5c" d="M 83.5,73.5 C 84.8333,82.8333 84.8333,92.1667 83.5,101.5C 83.5,101.167 83.5,100.833 83.5,100.5C 83.5,98.8333 83.5,97.1667 83.5,95.5C 83.5,95.1667 83.5,94.8333 83.5,94.5C 83.5,92.5 83.5,90.5 83.5,88.5C 81.1667,88.5 78.8333,88.5 76.5,88.5C 76.5,88.1667 76.5,87.8333 76.5,87.5C 78.8333,87.5 81.1667,87.5 83.5,87.5C 83.5,85.5 83.5,83.5 83.5,81.5C 81.1667,81.5 78.8333,81.5 76.5,81.5C 76.5,80.8333 76.5,80.1667 76.5,79.5C 78.8333,79.5 81.1667,79.5 83.5,79.5C 83.5,77.8333 83.5,76.1667 83.5,74.5C 83.5,74.1667 83.5,73.8333 83.5,73.5 Z"/></g>
<g><path style="opacity:1" fill="#cccccc" d="M 35.5,88.5 C 37.8333,88.5 40.1667,88.5 42.5,88.5C 44.2798,89.9899 44.9465,91.9899 44.5,94.5C 40.2431,93.3291 36.2431,93.3291 32.5,94.5C 31.359,92.5787 31.1923,90.5787 32,88.5C 32.3333,89.8333 32.6667,91.1667 33,92.5C 33.6082,90.9336 34.4415,89.6002 35.5,88.5 Z"/></g>
<g><path style="opacity:1" fill="#0d0d0d" d="M 144.5,85.5 C 144.586,86.4959 144.252,87.3292 143.5,88C 144.885,91.1543 146.218,94.3209 147.5,97.5C 144.029,98.4785 142.195,100.812 142,104.5C 137.676,97.5919 138.51,91.2586 144.5,85.5 Z"/></g>
<g><path style="opacity:1" fill="#f7f7f7" d="M 63.5,91.5 C 58.2435,94.1977 52.5769,95.1977 46.5,94.5C 46.5,92.5 46.5,90.5 46.5,88.5C 52.1667,88.5 57.8333,88.5 63.5,88.5C 63.5,89.5 63.5,90.5 63.5,91.5 Z"/></g>
<g><path style="opacity:1" fill="#f3f3f3" d="M 69.5,88.5 C 71.6842,90.9569 74.0175,90.9569 76.5,88.5C 78.8333,88.5 81.1667,88.5 83.5,88.5C 83.5,90.5 83.5,92.5 83.5,94.5C 77.5,94.5 71.5,94.5 65.5,94.5C 65.5,92.5 65.5,90.5 65.5,88.5C 66.8333,88.5 68.1667,88.5 69.5,88.5 Z"/></g>
<g><path style="opacity:1" fill="#0c0c0c" d="M 119.5,92.5 C 123.527,93.1389 127.527,93.9722 131.5,95C 127.167,95.6667 122.833,95.6667 118.5,95C 119.252,94.3292 119.586,93.4959 119.5,92.5 Z"/></g>
<g><path style="opacity:1" fill="#191919" d="M 97.5,92.5 C 99.1667,92.5 100.833,92.5 102.5,92.5C 102.5,93.5 102.5,94.5 102.5,95.5C 98.1539,95.6657 93.8206,95.499 89.5,95C 92.3791,94.454 95.0458,93.6206 97.5,92.5 Z"/></g>
<g><path style="opacity:1" fill="#ececec" d="M 43.5,96.5 C 39.2609,97.2951 35.2609,98.6284 31.5,100.5C 31.5,98.8333 31.5,97.1667 31.5,95.5C 35.5258,95.4972 39.5258,95.8306 43.5,96.5 Z"/></g>
<g><path style="opacity:1" fill="#fbfbfb" d="M 83.5,95.5 C 83.5,97.1667 83.5,98.8333 83.5,100.5C 69.8333,100.5 56.1667,100.5 42.5,100.5C 42.4326,99.0413 42.7659,97.7079 43.5,96.5C 49.1058,94.8952 54.6058,95.2285 60,97.5C 61.2247,97.1377 62.3914,96.6377 63.5,96C 70.1583,95.5004 76.825,95.3337 83.5,95.5 Z"/></g>
<g><path style="opacity:1" fill="#353535" d="M 104.5,97.5 C 106.237,92.7388 107.571,87.7388 108.5,82.5C 109.308,82.8076 109.975,83.3076 110.5,84C 107.841,88.0548 107.008,92.5548 108,97.5C 108.667,95.5 109.333,93.5 110,91.5C 112.007,96.3702 113.007,95.7036 113,89.5C 113.887,93.8484 113.387,98.015 111.5,102C 114.168,105.843 113.502,106.343 109.5,103.5C 108.289,102.726 108.289,101.893 109.5,101C 108.747,99.513 107.914,99.3463 107,100.5C 106.764,98.8807 105.931,97.8807 104.5,97.5 Z"/></g>
<g><path style="opacity:1" fill="#f5f5f5" d="M 38.5,99.5 C 39.3864,98.2241 40.3864,98.2241 41.5,99.5C 40.5754,100.562 39.5754,100.562 38.5,99.5 Z"/></g>
<g><path style="opacity:1" fill="#525252" d="M 104.5,97.5 C 104.499,105.517 104.166,113.517 103.5,121.5C 102.833,121.5 102.5,121.833 102.5,122.5C 102.676,115.972 102.676,109.305 102.5,102.5C 103.028,100.664 103.694,98.9972 104.5,97.5 Z"/></g>
<g><path style="opacity:1" fill="#f3f3f3" d="M 171.5,106.5 C 169.445,107.948 167.278,109.281 165,110.5C 164.583,109.244 163.75,108.577 162.5,108.5C 161.68,106.193 162.013,103.859 163.5,101.5C 169.283,98.0605 171.95,99.7272 171.5,106.5 Z"/></g>
<g><path style="opacity:1" fill="#e1e1e1" d="M 173.5,108.5 C 172.167,108.5 171.5,107.833 171.5,106.5C 172.249,105.469 172.915,104.302 173.5,103C 174.332,102.312 174.998,102.479 175.5,103.5C 174.544,105.075 173.877,106.742 173.5,108.5 Z"/></g>
<g><path style="opacity:1" fill="#151515" d="M 152.5,106.5 C 152.297,108.044 151.63,109.378 150.5,110.5C 152.653,115.259 156.32,116.759 161.5,115C 163.458,112.997 163.791,110.831 162.5,108.5C 163.75,108.577 164.583,109.244 165,110.5C 167.278,109.281 169.445,107.948 171.5,106.5C 171.5,107.833 172.167,108.5 173.5,108.5C 173.141,110.371 172.141,111.871 170.5,113C 158.424,119.979 148.424,117.812 140.5,106.5C 141.247,106.264 142.08,105.93 143,105.5C 143.483,106.448 143.649,107.448 143.5,108.5C 145.06,108.519 146.56,108.852 148,109.5C 149.643,108.685 151.143,107.685 152.5,106.5 Z"/></g>
<g><path style="opacity:1" fill="#ececec" d="M 152.5,106.5 C 156.162,106.034 159.495,106.701 162.5,108.5C 163.791,110.831 163.458,112.997 161.5,115C 156.32,116.759 152.653,115.259 150.5,110.5C 151.63,109.378 152.297,108.044 152.5,106.5 Z"/></g>
<g><path style="opacity:1" fill="#0f0f0f" d="M 83.5,144.5 C 82.962,146.117 82.6287,147.784 82.5,149.5C 80.7957,152.939 79.4624,156.605 78.5,160.5C 77.525,163.067 76.8583,165.733 76.5,168.5C 83.7419,168.633 90.9086,167.966 98,166.5C 101.942,166.476 105.275,167.809 108,170.5C 110.363,170.473 111.863,169.306 112.5,167C 114.034,166.077 115.701,165.577 117.5,165.5C 122.477,166.717 127.477,167.717 132.5,168.5C 134.693,169.797 137.027,169.797 139.5,168.5C 140.653,167.313 140.653,166.313 139.5,165.5C 138.499,162.828 137.499,160.162 136.5,157.5C 134.763,153.121 132.93,148.788 131,144.5C 130.536,145.094 130.369,145.761 130.5,146.5C 129.596,145.791 129.263,144.791 129.5,143.5C 123.912,143.062 118.412,142.062 113,140.5C 111.289,140.439 109.956,141.106 109,142.5C 108.178,150.345 108.344,158.011 109.5,165.5C 109.013,166.473 108.513,167.473 108,168.5C 107.829,159.99 107.329,151.657 106.5,143.5C 106.586,142.504 106.252,141.671 105.5,141C 103.5,140.667 101.5,140.333 99.5,140C 100.793,139.51 102.127,139.343 103.5,139.5C 103.786,133.741 103.452,128.075 102.5,122.5C 102.5,121.833 102.833,121.5 103.5,121.5C 104.409,120.682 104.909,119.016 105,116.5C 105.667,117.833 106.333,117.833 107,116.5C 108.776,113.486 110.443,110.486 112,107.5C 113.309,109.891 114.309,109.891 115,107.5C 114.402,110.027 113.902,112.693 113.5,115.5C 114.365,123.476 114.699,131.476 114.5,139.5C 120.799,140.991 127.132,142.325 133.5,143.5C 137.167,152.833 140.833,162.167 144.5,171.5C 120.5,172.833 96.5,172.833 72.5,171.5C 74.3407,162.474 77.3407,153.807 81.5,145.5C 81.9569,144.702 82.6236,144.369 83.5,144.5 Z"/></g>
<g><path style="opacity:1" fill="#0f0f0f" d="M 24.5,113.5 C 27.0059,120.193 29.8393,126.86 33,133.5C 50.6391,161.84 75.6391,180.507 108,189.5C 119.482,185.448 130.649,180.615 141.5,175C 167.458,161.562 184.791,141.062 193.5,113.5C 193.351,114.552 193.517,115.552 194,116.5C 194.671,115.748 195.504,115.414 196.5,115.5C 190.74,134.84 180.073,151.006 164.5,164C 167.077,165.25 169.743,165.584 172.5,165C 178.54,159.291 184.874,153.957 191.5,149C 204.685,146.378 212.685,151.545 215.5,164.5C 209.505,188.86 194.171,201.193 169.5,201.5C 150.343,214.109 129.343,221.776 106.5,224.5C 86.8945,221.863 68.8945,215.029 52.5,204C 29.5572,204.959 13.3905,195.126 4,174.5C -0.764478,154.606 6.73552,146.439 26.5,150C 32.4578,154.289 38.1244,158.956 43.5,164C 46.5,164.667 49.5,164.667 52.5,164C 38.6307,151.409 28.964,136.242 23.5,118.5C 24.4511,117.081 24.7845,115.415 24.5,113.5 Z"/></g>
<g><path style="opacity:1" fill="#929292" d="M 101.5,143.5 C 102.978,143.238 104.311,143.571 105.5,144.5C 103.187,145.273 100.854,145.94 98.5,146.5C 97.7492,147.376 97.2492,148.376 97,149.5C 94.5203,147.834 91.687,147.001 88.5,147C 93.2325,146.885 97.5658,145.718 101.5,143.5 Z"/></g>
<g><path style="opacity:1" fill="#282828" d="M 83.5,144.5 C 83.6107,143.883 83.944,143.383 84.5,143C 88.8134,141.833 93.1468,141.166 97.5,141C 93.7018,142.783 89.7018,143.616 85.5,143.5C 85.6332,146.925 84.9665,147.258 83.5,144.5 Z"/></g>
<g><path style="opacity:1" fill="#f1f1f1" d="M 130.5,146.5 C 131.417,152.177 133.25,157.51 136,162.5C 135.904,160.619 136.071,158.953 136.5,157.5C 137.499,160.162 138.499,162.828 139.5,165.5C 139.565,165.938 139.399,166.272 139,166.5C 138.085,165.672 137.419,164.672 137,163.5C 136.29,164.973 135.124,165.64 133.5,165.5C 131.283,164.631 128.95,164.298 126.5,164.5C 123.814,163.009 120.814,162.343 117.5,162.5C 115.5,162.667 113.5,162.833 111.5,163C 110.944,163.383 110.611,163.883 110.5,164.5C 109.833,164.5 109.5,164.833 109.5,165.5C 108.344,158.011 108.178,150.345 109,142.5C 109.956,141.106 111.289,140.439 113,140.5C 118.412,142.062 123.912,143.062 129.5,143.5C 129.263,144.791 129.596,145.791 130.5,146.5 Z"/></g>
<g><path style="opacity:1" fill="#626261" d="M 116.5,145.5 C 120.142,146.08 123.809,146.58 127.5,147C 124.5,147.667 121.5,147.667 118.5,147C 117.584,146.722 116.918,146.222 116.5,145.5 Z"/></g>
<g><path style="opacity:1" fill="#696969" d="M 116.5,145.5 C 114.473,145.662 112.473,145.495 110.5,145C 112.67,143.112 114.67,143.279 116.5,145.5 Z"/></g>
<g><path style="opacity:1" fill="#6d6d6d" d="M 117.5,151.5 C 115.143,151.663 112.81,151.497 110.5,151C 111.025,150.308 111.692,149.808 112.5,149.5C 114.336,150.028 116.003,150.694 117.5,151.5 Z"/></g>
<g><path style="opacity:1" fill="#4f4f4f" d="M 100.5,149.5 C 101.873,149.343 103.207,149.51 104.5,150C 98.4072,152.702 92.0738,153.702 85.5,153C 90.8688,152.883 95.8688,151.716 100.5,149.5 Z"/></g>
<g><path style="opacity:1" fill="#7a7a7a" d="M 80.5,162.5 C 79.8333,161.833 79.1667,161.167 78.5,160.5C 79.4624,156.605 80.7957,152.939 82.5,149.5C 83.2216,149.082 83.7216,148.416 84,147.5C 83.3184,152.563 82.1518,157.563 80.5,162.5 Z"/></g>
<g><path style="opacity:1" fill="#8c8c8c" d="M 136.5,157.5 C 136.071,158.953 135.904,160.619 136,162.5C 133.25,157.51 131.417,152.177 130.5,146.5C 130.369,145.761 130.536,145.094 131,144.5C 132.93,148.788 134.763,153.121 136.5,157.5 Z"/></g>
<g><path style="opacity:1" fill="#dadada" d="M 106.5,143.5 C 107.329,151.657 107.829,159.99 108,168.5C 108.513,167.473 109.013,166.473 109.5,165.5C 109.5,164.833 109.833,164.5 110.5,164.5C 115.811,163.296 121.144,163.296 126.5,164.5C 128.95,164.298 131.283,164.631 133.5,165.5C 140.487,167.871 140.154,168.871 132.5,168.5C 127.477,167.717 122.477,166.717 117.5,165.5C 115.701,165.577 114.034,166.077 112.5,167C 111.863,169.306 110.363,170.473 108,170.5C 105.275,167.809 101.942,166.476 98,166.5C 90.9086,167.966 83.7419,168.633 76.5,168.5C 76.8583,165.733 77.525,163.067 78.5,160.5C 79.1667,161.167 79.8333,161.833 80.5,162.5C 80.6716,163.492 80.3382,164.158 79.5,164.5C 78.5798,163.933 78.2465,164.599 78.5,166.5C 80.4147,166.784 82.0813,166.451 83.5,165.5C 89.0251,163.867 94.6918,162.367 100.5,161C 98.9751,159.991 97.3084,159.491 95.5,159.5C 95.5,159.167 95.5,158.833 95.5,158.5C 98.8756,156.918 102.542,156.251 106.5,156.5C 106.5,152.167 106.5,147.833 106.5,143.5 Z"/></g>
<g><path style="opacity:1" fill="#f3f3f3" d="M 15.5,151.5 C 19.263,151.857 22.9296,152.69 26.5,154C 43.5751,171.392 63.5751,184.392 86.5,193C 94.0751,194.977 101.742,196.477 109.5,197.5C 132.689,193.237 153.689,184.07 172.5,170C 179.833,164 187.167,158 194.5,152C 205.959,150.739 211.625,155.905 211.5,167.5C 205.301,169.182 199.634,172.015 194.5,176C 182.5,185.333 170.5,194.667 158.5,204C 142.803,213.011 125.97,218.844 108,221.5C 92.5662,219.467 78.0662,214.633 64.5,207C 48.5,195.667 32.5,184.333 16.5,173C 13.2799,171.648 9.9466,170.814 6.5,170.5C 4.05444,161.259 7.05444,154.926 15.5,151.5 Z"/></g>
<g><path style="opacity:1" fill="#1f1f1f" d="M 41.5,173.5 C 44.2853,173.933 46.6187,175.266 48.5,177.5C 48.1667,177.833 47.8333,178.167 47.5,178.5C 46.1667,177.5 44.8333,176.5 43.5,175.5C 42.6919,175.808 42.0253,176.308 41.5,177C 42.8333,178.333 44.1667,179.667 45.5,181C 43.6133,181.163 42.1133,180.329 41,178.5C 39.7705,179.275 39.4372,180.275 40,181.5C 41.3333,182.833 42.6667,184.167 44,185.5C 52.7788,178.574 54.7788,180.574 50,191.5C 49.7561,186.511 47.7561,185.178 44,187.5C 41.4066,185.451 38.9066,183.285 36.5,181C 38.3887,178.618 40.0553,176.118 41.5,173.5 Z"/></g>
<g><path style="opacity:1" fill="#e4e4e3" d="M 157.5,168.5 C 160.85,168.335 164.183,168.502 167.5,169C 163.102,172.394 158.435,175.394 153.5,178C 150.446,178.821 147.446,178.655 144.5,177.5C 149.15,174.832 153.483,171.832 157.5,168.5 Z"/></g>
<g><path style="opacity:1" fill="#181818" d="M 36.5,173.5 C 37.614,170.593 39.2807,170.093 41.5,172C 39.2121,174.743 37.0455,177.577 35,180.5C 34.3333,179.5 34.3333,178.5 35,177.5C 37.0593,176.403 37.5593,175.07 36.5,173.5 Z"/></g>
<g><path style="opacity:1" fill="#666666" d="M 139.5,165.5 C 140.653,166.313 140.653,167.313 139.5,168.5C 137.027,169.797 134.693,169.797 132.5,168.5C 140.154,168.871 140.487,167.871 133.5,165.5C 135.124,165.64 136.29,164.973 137,163.5C 137.419,164.672 138.085,165.672 139,166.5C 139.399,166.272 139.565,165.938 139.5,165.5 Z"/></g>
<g><path style="opacity:1" fill="#e4e4e4" d="M 49.5,167.5 C 52.1873,167.336 54.854,167.503 57.5,168C 62.328,171.581 67.328,174.915 72.5,178C 69.5,178.667 66.5,178.667 63.5,178C 58.1598,175.188 53.4931,171.688 49.5,167.5 Z"/></g>
<g><path style="opacity:1" fill="#101010" d="M 36.5,173.5 C 35.4923,175.339 33.9923,176.672 32,177.5C 31.8446,175.144 31.8446,172.811 32,170.5C 31.2681,172.923 29.7681,174.09 27.5,174C 29.3404,171.331 31.3404,168.831 33.5,166.5C 34.2716,169.135 34.4382,171.801 34,174.5C 34.6708,173.748 35.5041,173.414 36.5,173.5 Z"/></g>
<g><path style="opacity:1" fill="#000000" d="M 79.5,164.5 C 80.5676,165.434 81.901,165.768 83.5,165.5C 82.0813,166.451 80.4147,166.784 78.5,166.5C 78.2465,164.599 78.5798,163.933 79.5,164.5 Z"/></g>
<g><path style="opacity:1" fill="#7a7a7a" d="M 126.5,164.5 C 121.144,163.296 115.811,163.296 110.5,164.5C 110.611,163.883 110.944,163.383 111.5,163C 113.5,162.833 115.5,162.667 117.5,162.5C 120.814,162.343 123.814,163.009 126.5,164.5 Z"/></g>
<g><path style="opacity:1" fill="#4c4c4c" d="M 95.5,158.5 C 95.5,158.833 95.5,159.167 95.5,159.5C 91.204,160.463 86.8706,160.629 82.5,160C 86.8477,159.535 91.181,159.035 95.5,158.5 Z"/></g>
<g><path style="opacity:1" fill="#626262" d="M 110.5,156.5 C 114.302,156.76 117.969,157.594 121.5,159C 117.538,158.895 113.538,158.561 109.5,158C 110.056,157.617 110.389,157.117 110.5,156.5 Z"/></g>
<g><path style="opacity:1" fill="#2c2c2c" d="M 117.5,151.5 C 121.819,152.035 126.152,152.535 130.5,153C 125.864,153.939 121.531,153.439 117.5,151.5 Z"/></g>
<g><path style="opacity:1" fill="#1e1e1e" d="M 174.5,172.5 C 175.239,172.369 175.906,172.536 176.5,173C 171.016,177.988 171.683,179.321 178.5,177C 177.315,178.353 175.981,179.52 174.5,180.5C 174.709,181.086 175.043,181.586 175.5,182C 177.961,181.592 180.294,180.926 182.5,180C 180.924,182.077 178.924,183.577 176.5,184.5C 173.644,182.478 171.311,179.978 169.5,177C 171.24,175.483 172.906,173.983 174.5,172.5 Z"/></g>
<g><path style="opacity:1" fill="#e2e2e2" d="M 135.5,181.5 C 138.85,181.335 142.183,181.502 145.5,182C 133.771,188.414 121.438,192.247 108.5,193.5C 117.935,190.278 126.935,186.278 135.5,181.5 Z"/></g>
<g><path style="opacity:1" fill="#0c0c0c" d="M 159.5,185.5 C 159.56,184.957 159.893,184.624 160.5,184.5C 161.583,185.365 161.749,186.365 161,187.5C 160.722,186.584 160.222,185.918 159.5,185.5 Z"/></g>
<g><path style="opacity:1" fill="#1b1b1b" d="M 166.5,179.5 C 169.91,179.384 171.244,181.05 170.5,184.5C 172.308,184.491 173.975,184.991 175.5,186C 173.265,187.357 170.931,187.19 168.5,185.5C 167.949,187.413 167.782,189.413 168,191.5C 165.92,189.007 164.086,186.341 162.5,183.5C 163.549,181.784 164.882,180.451 166.5,179.5 Z"/></g>
<g><path style="opacity:1" fill="#dfdfdf" d="M 165.5,181.5 C 170.515,181.863 170.682,183.197 166,185.5C 164.232,184.318 164.065,182.985 165.5,181.5 Z"/></g>
<g><path style="opacity:1" fill="#f4f422" d="M 207.5,171.5 C 208.376,171.369 209.043,171.702 209.5,172.5C 202.158,188.356 189.825,196.856 172.5,198C 184.067,188.919 195.734,180.086 207.5,171.5 Z"/></g>
<g><path style="opacity:1" fill="#dcdcdc" d="M 70.5,182.5 C 73.3035,181.362 76.3035,181.195 79.5,182C 88.5722,186.523 97.9056,190.356 107.5,193.5C 107.167,193.833 106.833,194.167 106.5,194.5C 94.0318,191.899 82.0318,187.899 70.5,182.5 Z"/></g>
<g><path style="opacity:1" fill="#f4f422" d="M 9.5,175.5 C 12.0163,175.755 14.3496,176.589 16.5,178C 26.3435,184.755 36.0102,191.755 45.5,199C 28.3543,199.017 16.3543,191.183 9.5,175.5 Z"/></g>
<g><path style="opacity:1" fill="#181818" d="M 151.5,192.5 C 151.351,191.448 151.517,190.448 152,189.5C 153.743,191.321 155.243,193.321 156.5,195.5C 160.083,196.73 161.249,195.396 160,191.5C 158.954,189.91 157.787,188.41 156.5,187C 157,186.5 157.5,186 158,185.5C 159.889,188.112 161.389,190.945 162.5,194C 161.202,197.205 158.868,198.205 155.5,197C 154.672,195.008 153.339,193.508 151.5,192.5 Z"/></g>
<g><path style="opacity:1" fill="#191919" d="M 56.5,183.5 C 57.3213,186.641 57.8213,189.975 58,193.5C 59.3333,191.5 60.6667,189.5 62,187.5C 62.1667,188 62.3333,188.5 62.5,189C 61.0168,191.823 59.5168,194.657 58,197.5C 56.7681,194.7 56.1015,191.7 56,188.5C 54.8333,190.167 53.6667,191.833 52.5,193.5C 52.1667,193.167 51.8333,192.833 51.5,192.5C 53.4325,189.634 55.0991,186.634 56.5,183.5 Z"/></g>
<g><path style="opacity:1" fill="#202020" d="M 151.5,192.5 C 155.583,199.679 153.583,202.845 145.5,202C 141.56,195.104 143.56,191.937 151.5,192.5 Z"/></g>
<g><path style="opacity:1" fill="#ececec" d="M 147.5,193.5 C 149.934,194.099 151.601,195.599 152.5,198C 149.527,202.792 147.194,202.459 145.5,197C 145.862,195.566 146.528,194.399 147.5,193.5 Z"/></g>
<g><path style="opacity:1" fill="#101010" d="M 140.5,195.5 C 141.239,195.369 141.906,195.536 142.5,196C 140.694,199.382 140.194,202.882 141,206.5C 139.318,203.231 136.818,200.731 133.5,199C 135.464,198.376 137.131,198.876 138.5,200.5C 140.217,199.332 140.884,197.665 140.5,195.5 Z"/></g>
<g><path style="opacity:1" fill="#181818" d="M 82.5,197.5 C 83.5862,197.62 84.2528,198.287 84.5,199.5C 83.772,201.155 83.6053,202.821 84,204.5C 88.0489,198.593 90.0489,199.259 90,206.5C 91.5737,205.016 92.907,203.349 94,201.5C 96.0162,202.955 96.8495,204.955 96.5,207.5C 98.1667,207.5 99.8333,207.5 101.5,207.5C 101.343,206.127 101.51,204.793 102,203.5C 102.5,204 103,204.5 103.5,205C 102.559,208.272 101.393,211.438 100,214.5C 100.128,212.555 99.9615,210.722 99.5,209C 96.162,207.794 94.3287,208.96 94,212.5C 93.7468,209.8 93.7468,207.133 94,204.5C 91.9824,206.35 90.1491,208.35 88.5,210.5C 87.7284,207.865 87.5618,205.199 88,202.5C 85.954,204.376 84.1207,206.376 82.5,208.5C 81.7068,204.88 81.7068,201.213 82.5,197.5 Z"/></g>
<g><path style="opacity:1" fill="#202020" d="M 109.5,204.5 C 112.187,204.336 114.854,204.503 117.5,205C 116.376,205.249 115.376,205.749 114.5,206.5C 115.738,209.166 115.738,211.832 114.5,214.5C 113.682,211.893 113.182,209.226 113,206.5C 112.259,205.359 111.425,205.359 110.5,206.5C 109.702,206.043 109.369,205.376 109.5,204.5 Z"/></g>
<g><path style="opacity:1" fill="#202020" d="M 105.5,204.5 C 106.5,204.5 107.5,204.5 108.5,204.5C 108.777,207.89 109.777,211.057 111.5,214C 109.763,212.229 107.429,211.395 104.5,211.5C 104.719,212.675 104.386,213.675 103.5,214.5C 103.167,214.167 102.833,213.833 102.5,213.5C 103.35,210.427 104.35,207.427 105.5,204.5 Z"/></g>
<g><path style="opacity:1" fill="#e0e0e0" d="M 105.5,207.5 C 107.465,207.948 107.798,208.948 106.5,210.5C 105.614,209.675 105.281,208.675 105.5,207.5 Z"/></g>
</svg>
